<svg xmlns="http://www.w3.org/2000/svg" width="75.017" height="75.164"><defs><clipPath id="a" clipPathUnits="userSpaceOnUse"><path d="M-171.925 39.573h340v-124h-340Z"/></clipPath><clipPath id="b" clipPathUnits="userSpaceOnUse"><path d="M-172.95 94.765h340v-124h-340Z"/></clipPath></defs><path d="M0 0h2.136c.192-.032.384-.068.576-.095C4.241-.314 5.8-.417 7.3-.767c6.29-1.473 11.478-4.753 15.408-9.885 4.995-6.52 6.655-13.881 5.08-21.926-1.012-5.17-3.44-9.646-7.144-13.391-5.038-5.089-11.156-7.821-18.316-8.191-.235-.014-.469-.061-.704-.093H.512c-.063.025-.126.068-.192.073-.74.047-1.482.051-2.215.135a27.45 27.45 0 0 0-10.592 3.424c-10.038 5.699-15.394 17.051-13.269 28.402 1.408 7.519 5.408 13.403 11.749 17.66C-10.258-2.042-6.1-.6-1.595-.174-1.063-.124-.532-.059 0 0m26.252-27.179C26.139-13.333 15.257-2.328 1.399-2.31c-13.863.018-24.883-10.975-24.89-24.849-.007-13.845 10.968-24.849 24.826-24.867 13.863-.02 24.793 10.973 24.917 24.847" clip-path="url(#a)" style="fill:#2f4a9f;fill-opacity:1;fill-rule:nonzero;stroke:none" transform="matrix(1.33333 0 0 -1.33333 36.064 1.575)"/><path d="M488.504 223.123a1.18 1.18 0 0 0-.865.32c-1.065 1.052-2.114 2.127-3.17 3.185-1.338 1.344-2.682 2.684-4.015 4.032-.312.312-.66.436-1.114.433-3.721-.018-7.442-.013-11.162-.013-.917 0-1.252.341-1.252 1.273 0 3.72-.005 7.443.01 11.164.003.43-.105.763-.414 1.063-.735.713-1.454 1.442-2.178 2.164-1.63 1.616-3.263 3.228-4.884 4.85-.62.62-.612 1.315.004 1.943.358.364.745.703 1.109 1.064 1.93 1.928 3.858 3.86 5.795 5.785.364.362.577.725.574 1.281-.028 3.722-.015 7.44-.015 11.165 0 .896.335 1.232 1.226 1.232 3.777 0 7.553-.004 11.332.008.247 0 .557.056.727.209.886.828 1.746 1.686 2.603 2.543 1.648 1.648 3.285 3.312 4.936 4.96.37.368 1.187.329 1.549-.032 2.469-2.467 4.936-4.937 7.418-7.385.177-.175.49-.288.74-.291 1.916-.024 3.834-.012 5.75-.012h5.697c.827 0 1.12-.293 1.12-1.129 0-3.796-.006-7.592.01-11.39.002-.259.077-.59.245-.764 1.119-1.161 2.27-2.288 3.41-3.428 1.303-1.296 2.618-2.583 3.899-3.9.608-.623.56-1.239-.069-1.865-2.364-2.36-4.723-4.73-7.1-7.079-.294-.292-.408-.586-.405-.998.016-3.76.01-7.515.01-11.275 0-.86-.296-1.156-1.159-1.156-3.742 0-7.48-.008-11.222.013-.479 0-.81-.146-1.143-.482-2.361-2.39-4.742-4.758-7.125-7.129a1.28 1.28 0 0 0-.87-.36z" style="fill:#ffd300;fill-opacity:1" transform="translate(-451 -215)"/><path d="M0 0c-.327.352-.641.717-.981 1.056-1.652 1.647-3.312 3.282-4.968 4.924q-.983.977-1.949 1.97c-.217.223-.458.289-.762.286-3.56-.009-7.12.003-10.678-.015-.437-.003-.548.115-.546.548.018 3.573.007 7.147.016 10.72 0 .309-.092.512-.32.735-1.261 1.232-2.495 2.491-3.743 3.738-.974.975-1.96 1.941-2.933 2.917-.401.404-.785.821-1.209 1.268.106.111.226.244.352.37 2.509 2.504 5.015 5.013 7.53 7.51a1 1 0 0 1 .323.785c-.009 3.546 0 7.091-.013 10.637-.003.397.083.537.509.534 3.59-.02 7.176-.018 10.763-.002.221 0 .494.133.657.293 2.558 2.534 5.105 5.081 7.652 7.628.099.101.169.23.341.471.324-.379.555-.681.821-.949a830 830 0 0 1 3.963-4 273 273 0 0 1 3.33-3.303c.12-.115.361-.142.546-.142 3.56-.009 7.12-.014 10.68.004.444.003.539-.128.537-.552q-.023-5.296.002-10.592c.002-.241.106-.541.268-.71 1.009-1.043 2.046-2.058 3.073-3.082q2.281-2.274 4.559-4.548c.111-.11.21-.23.37-.404-.438-.422-.869-.828-1.288-1.247-2.186-2.179-4.356-4.374-6.56-6.536-.345-.338-.442-.665-.44-1.116.013-3.474 0-6.949.016-10.423.002-.417-.084-.555-.535-.552-3.531.02-7.063.004-10.594.02-.372 0-.645-.104-.902-.361-1.354-1.365-2.716-2.718-4.074-4.077A1959 1959 0 0 1 .289.266C.212.187.153.088.086 0Zm11.065 12.008h4.273c.62 0 .839.219.839.846 0 2.847-.004 5.694.007 8.543.002.194.059.443.185.573.839.871 1.703 1.715 2.558 2.57.977.972 1.963 1.938 2.924 2.926.456.467.419.929-.052 1.399-1.773 1.77-3.542 3.546-5.324 5.308a.95.95 0 0 0-.305.749c.012 2.82.007 5.637.007 8.457 0 .645-.221.866-.868.866-2.807 0-5.611.007-8.417-.009-.359 0-.607.109-.857.361-1.771 1.792-3.558 3.569-5.345 5.347-.345.345-.961.365-1.301.029-.799-.789-1.586-1.595-2.378-2.389-1.004-1.008-2.012-2.012-3.012-3.023-.234-.234-.494-.327-.834-.325-2.791.014-5.582.009-8.372.009-.688 0-.939-.255-.939-.954 0-2.79-.004-5.583.007-8.374.002-.322-.079-.571-.311-.796-.551-.535-1.09-1.083-1.633-1.624-1.223-1.212-2.448-2.421-3.664-3.637-.465-.465-.458-.986.004-1.457.269-.273.558-.528.831-.799 1.448-1.446 2.894-2.894 4.347-4.338.273-.271.433-.544.431-.961-.021-2.791-.012-5.581-.012-8.374 0-.672.251-.923.919-.923 2.833 0 5.666.003 8.5-.006.185 0 .417-.043.544-.158A80 80 0 0 0-4.23 9.937c1.236-1.236 2.464-2.483 3.702-3.72.278-.275.891-.246 1.162.025 1.852 1.85 3.702 3.702 5.563 5.538a.88.88 0 0 0 .555.219c1.437.018 2.876.009 4.313.009" clip-path="url(#b)" style="fill:#2f4a9f;fill-opacity:1;fill-rule:nonzero;stroke:none" transform="matrix(1.33333 0 0 -1.33333 37.43 75.164)"/><text xml:space="preserve" x="488.808" y="264.034" style="font-style:normal;font-variant:normal;font-weight:700;font-stretch:normal;font-size:34.0157px;font-family:Calibri;-inkscape-font-specification:&quot;Calibri, Bold&quot;;font-variant-ligatures:normal;font-variant-caps:normal;font-variant-numeric:normal;font-variant-east-asian:normal;text-align:center;writing-mode:lr-tb;direction:rtl;text-anchor:middle;fill:#2f4a9f;fill-opacity:1;stroke-width:.118301;stroke-miterlimit:45" transform="translate(-451 -215)"><tspan x="488.808" y="264.034" style="font-style:normal;font-variant:normal;font-weight:700;font-stretch:normal;font-size:34.0157px;font-family:Calibri;-inkscape-font-specification:&quot;Calibri, Bold&quot;;font-variant-ligatures:normal;font-variant-caps:normal;font-variant-numeric:normal;font-variant-east-asian:normal;fill:#2f4a9f;fill-opacity:1;stroke-width:.118301">TfC</tspan></text></svg>